<?xml version="1.0" standalone="no"?>
<!DOCTYPE svg PUBLIC "-//W3C//DTD SVG 20010904//EN"
 "http://www.w3.org/TR/2001/REC-SVG-20010904/DTD/svg10.dtd">
<svg version="1.0" xmlns="http://www.w3.org/2000/svg"
 width="807.000000pt" height="807.000000pt" viewBox="0 0 807.000000 807.000000"
 preserveAspectRatio="xMidYMid meet">
<metadata>
Created by potrace 1.14, written by Peter Selinger 2001-2017
</metadata>
<g transform="translate(0.000000,807.000000) scale(0.100000,-0.100000)"
fill="#000000" stroke="none">
<path d="M0 4035 l0 -4035 4035 0 4035 0 0 4035 0 4035 -4035 0 -4035 0 0
-4035z m4590 2150 c173 -22 291 -49 465 -106 188 -63 327 -128 463 -220 153
-102 213 -152 337 -280 213 -219 291 -386 265 -568 -31 -220 -173 -395 -386
-477 -92 -36 -257 -44 -354 -19 -152 39 -272 129 -373 279 -141 210 -275 306
-512 367 -121 31 -350 33 -469 5 -265 -62 -485 -241 -596 -483 -87 -188 -114
-343 -113 -628 0 -195 3 -233 25 -335 31 -143 94 -305 152 -390 87 -129 236
-256 373 -316 139 -62 329 -86 512 -65 273 32 471 151 615 369 141 216 308
313 536 313 223 0 426 -120 524 -310 51 -97 66 -158 66 -262 0 -118 -25 -196
-100 -308 -153 -227 -413 -447 -700 -589 -182 -90 -214 -102 -374 -142 -477
-120 -884 -121 -1347 -5 -373 94 -727 299 -971 563 -230 250 -422 631 -483
962 -10 52 -22 104 -26 115 -5 11 -13 118 -19 237 -19 405 24 724 135 1018
157 412 392 710 745 943 269 177 636 300 1020 340 104 11 476 6 590 -8z"/>
<path d="M3947 6055 c-262 -32 -578 -127 -767 -232 -342 -189 -614 -482 -765
-822 -112 -253 -185 -575 -185 -817 l0 -66 78 107 c42 59 82 114 89 123 6 10
19 60 28 112 41 247 145 523 261 695 217 323 524 548 899 658 168 49 232 64
370 83 156 21 457 21 618 0 129 -18 340 -69 457 -111 282 -102 579 -327 737
-556 39 -58 46 -76 50 -132 14 -170 -114 -308 -286 -309 -118 -1 -199 48 -276
167 -102 158 -229 282 -380 371 -65 38 -250 104 -350 126 -122 25 -423 27
-540 3 -171 -36 -334 -110 -473 -215 -77 -58 -210 -188 -182 -177 8 3 73 31
144 62 71 31 183 71 250 90 66 18 157 45 201 58 146 45 341 55 535 26 166 -25
321 -92 450 -196 80 -65 126 -119 248 -293 51 -73 136 -131 235 -162 57 -17
86 -20 164 -16 85 5 102 9 178 47 218 108 312 352 216 558 -79 167 -306 391
-553 545 -212 132 -528 236 -828 273 -151 18 -470 18 -623 0z"/>
<path d="M4025 5770 c-388 -44 -678 -158 -945 -370 -171 -136 -321 -345 -409
-569 -94 -239 -129 -412 -138 -686 -9 -281 19 -501 94 -725 183 -552 596 -904
1208 -1030 153 -31 313 -43 505 -37 486 16 875 167 1167 454 125 123 176 197
176 257 0 84 -64 148 -152 149 -68 1 -106 -25 -169 -118 -66 -98 -149 -197
-211 -251 -62 -55 -200 -148 -275 -186 -84 -43 -270 -100 -366 -113 -25 -3
-52 -8 -60 -10 -13 -3 -233 -18 -270 -18 -82 0 -288 43 -419 88 -213 72 -448
249 -598 450 -75 100 -226 415 -208 433 3 3 1 10 -4 16 -5 6 -18 52 -29 101
-74 327 -61 739 33 1053 38 126 142 332 219 434 124 163 316 316 502 402 144
65 388 116 562 116 157 0 414 -43 532 -90 238 -94 436 -252 577 -461 77 -113
111 -139 184 -139 95 0 172 96 148 184 -17 60 -136 198 -254 295 -249 204
-464 297 -825 357 -113 18 -459 27 -575 14z"/>
<path d="M3315 4907 c-139 -71 -140 -72 -167 -127 -41 -83 -85 -231 -110 -365
-18 -100 -22 -158 -22 -345 -1 -311 34 -498 132 -717 84 -189 205 -343 361
-461 71 -53 218 -142 235 -142 4 0 -17 29 -48 65 -65 76 -128 165 -182 255
-21 36 -63 97 -92 135 -99 130 -177 320 -219 530 -25 130 -26 529 0 665 22
117 74 274 123 372 35 70 44 85 108 171 16 20 27 37 25 37 -2 -1 -67 -33 -144
-73z"/>
<path d="M2334 4028 c-29 -46 -63 -103 -77 -128 l-25 -45 14 -113 c74 -595
377 -1090 839 -1372 185 -113 360 -186 576 -239 202 -50 337 -65 589 -65 214
-1 450 17 450 34 0 4 -21 15 -47 25 -27 9 -81 35 -122 57 l-74 39 -226 4
c-196 3 -248 7 -392 33 -506 91 -904 341 -1155 727 -64 100 -94 159 -151 300
-82 202 -123 408 -141 703 l-7 123 -51 -83z"/>
<path d="M5435 3498 c-67 -13 -160 -59 -216 -107 -25 -22 -76 -85 -112 -139
-75 -111 -200 -237 -290 -290 -247 -148 -596 -190 -885 -106 -46 14 -98 32
-114 40 l-31 16 21 -29 c11 -15 62 -69 114 -119 90 -89 95 -92 148 -98 30 -3
80 -8 112 -11 79 -9 274 11 404 40 187 43 382 152 525 294 30 31 88 104 127
163 106 155 157 188 289 188 95 0 160 -27 215 -88 52 -58 70 -97 76 -169 6
-77 -12 -129 -72 -211 -61 -83 -199 -220 -286 -284 -109 -80 -290 -186 -362
-213 -35 -12 -70 -25 -78 -28 -58 -25 -176 -59 -253 -73 l-92 -17 55 -25 c30
-13 91 -37 135 -53 l79 -29 96 31 c372 122 792 453 915 722 113 245 -74 557
-357 597 -74 11 -96 11 -163 -2z"/>
</g>
</svg>
