<?xml version="1.0" standalone="no"?>
<!DOCTYPE svg PUBLIC "-//W3C//DTD SVG 20010904//EN"
 "http://www.w3.org/TR/2001/REC-SVG-20010904/DTD/svg10.dtd">
<svg version="1.0" xmlns="http://www.w3.org/2000/svg"
 width="300.000000pt" height="300.000000pt" viewBox="0 0 300.000000 300.000000"
 preserveAspectRatio="xMidYMid meet">
<metadata>
Created by potrace 1.11, written by Peter Selinger 2001-2013
</metadata>
<g transform="translate(0.000000,300.000000) scale(0.100000,-0.100000)"
fill="#000000" stroke="none">
<path d="M1320 2975 c-568 -70 -1054 -467 -1235 -1010 -56 -169 -69 -254 -69
-465 -1 -215 11 -297 65 -463 172 -527 607 -906 1164 -1014 122 -23 396 -23
516 0 330 65 592 207 824 448 199 207 335 475 390 769 24 129 25 370 1 505
-35 194 -126 423 -229 575 -254 374 -649 611 -1099 660 -120 12 -193 11 -328
-5z m160 -1266 l0 -501 -267 4 c-247 4 -273 6 -330 27 -184 67 -299 208 -323
394 -29 230 65 423 253 518 98 50 148 57 420 58 l247 1 0 -501z m618 486 c125
-30 236 -105 298 -201 150 -234 83 -569 -140 -703 -116 -70 -142 -74 -438 -79
l-268 -4 0 501 0 501 243 0 c178 0 259 -4 305 -15z m-1373 -1150 c57 -29 85
-75 85 -143 0 -121 -65 -172 -218 -172 l-92 0 0 171 0 171 93 -4 c64 -3 104
-10 132 -23z m233 -45 c24 -39 45 -70 47 -70 2 0 23 31 47 70 39 63 46 70 76
70 17 0 32 -3 32 -7 0 -5 -27 -48 -60 -98 -59 -89 -60 -91 -60 -162 l0 -73
-35 0 -35 0 0 73 c0 53 -5 79 -17 97 -10 14 -39 58 -65 98 l-48 72 38 0 c35 0
39 -4 80 -70z m407 -43 l80 -108 3 110 3 111 34 0 35 0 0 -170 0 -170 -34 0
c-33 0 -39 7 -113 110 -43 60 -81 109 -85 110 -5 0 -8 -49 -8 -110 l0 -110
-34 0 -34 0 -1 163 c-1 90 2 166 6 170 4 5 21 7 38 5 25 -3 42 -19 110 -111z
m465 83 l0 -30 -85 0 -85 0 0 -40 0 -40 85 0 85 0 0 -30 0 -30 -85 0 -85 0 0
-45 0 -45 85 0 c84 0 85 0 85 -25 l0 -25 -119 0 -119 0 -1 163 c-1 90 1 166 5
170 4 4 58 7 121 7 l113 0 0 -30z m280 12 c69 -34 79 -124 19 -174 l-32 -27
36 -60 36 -61 -37 0 c-35 0 -39 3 -70 60 -29 52 -37 60 -63 60 -29 0 -29 0
-29 -60 l0 -60 -35 0 -35 0 0 170 0 170 88 0 c63 0 97 -5 122 -18z m205 -54
c22 -37 43 -67 46 -68 4 0 26 32 49 70 39 65 45 70 76 70 19 0 34 -2 34 -5 0
-2 -29 -49 -65 -104 -63 -98 -65 -102 -65 -166 l0 -65 -30 0 -30 0 0 71 c0 65
-3 74 -38 127 -22 31 -51 76 -66 100 l-27 43 38 -3 c35 -3 41 -8 78 -70z"/>
<path d="M990 2021 c-201 -62 -288 -299 -179 -490 61 -106 146 -141 341 -141
l128 0 0 320 0 320 -132 -1 c-73 0 -144 -4 -158 -8z"/>
<path d="M1750 1710 l0 -322 148 4 c136 3 151 5 198 30 110 58 169 163 168
298 -1 125 -55 220 -156 275 -51 29 -58 30 -205 33 l-153 4 0 -322z"/>
<path d="M570 894 l0 -117 54 6 c29 3 63 11 74 18 61 38 68 132 12 182 -25 22
-39 27 -85 27 l-55 0 0 -116z"/>
<path d="M1970 960 l0 -50 53 0 c59 0 77 12 77 50 0 38 -18 50 -77 50 l-53 0
0 -50z"/>
</g>
</svg>
