<?xml version="1.0" standalone="no"?>
<!DOCTYPE svg PUBLIC "-//W3C//DTD SVG 20010904//EN"
 "http://www.w3.org/TR/2001/REC-SVG-20010904/DTD/svg10.dtd">
<svg version="1.0" xmlns="http://www.w3.org/2000/svg"
 width="2048.000000pt" height="2048.000000pt" viewBox="0 0 2048.000000 2048.000000"
 preserveAspectRatio="xMidYMid meet">
<metadata>
Created by potrace 1.11, written by Peter Selinger 2001-2013
</metadata>
<g transform="translate(0.000000,2048.000000) scale(0.100000,-0.100000)"
fill="#000000" stroke="none">
<path d="M9620 20426 c0 -24 -83 -36 -242 -37 -101 0 -172 -5 -210 -15 -105
-27 -162 -35 -303 -44 -98 -6 -155 -15 -191 -29 -33 -13 -99 -23 -195 -31
-155 -13 -170 -16 -269 -52 -40 -15 -90 -25 -129 -26 -72 -2 -104 -9 -96 -22
9 -14 -57 -31 -140 -37 -88 -5 -128 -15 -193 -45 -23 -11 -72 -24 -110 -30
-37 -6 -74 -14 -82 -19 -49 -28 -84 -39 -159 -48 -56 -7 -92 -17 -105 -29 -12
-10 -56 -27 -100 -36 -47 -11 -86 -26 -99 -39 -15 -15 -45 -25 -100 -34 -55
-8 -86 -19 -98 -32 -18 -20 -68 -37 -119 -43 -14 -2 -32 -11 -40 -20 -19 -21
-100 -48 -145 -48 -25 0 -39 -6 -50 -24 -13 -19 -28 -26 -77 -31 -47 -6 -67
-13 -91 -36 -16 -16 -33 -30 -36 -30 -3 -1 -21 -3 -39 -5 -29 -3 -86 -34 -102
-55 -3 -3 -26 -9 -52 -13 -28 -4 -60 -17 -77 -31 -33 -28 -72 -45 -105 -45
-22 0 -61 -32 -51 -41 2 -3 -23 -11 -56 -18 -47 -11 -62 -19 -69 -37 -9 -22
-59 -44 -101 -44 -9 0 -23 -8 -30 -17 -12 -15 -12 -16 1 -8 13 8 13 7 1 -8 -7
-9 -22 -17 -32 -17 -38 0 -96 -24 -105 -44 -5 -11 -22 -24 -39 -30 -16 -6 -52
-26 -79 -44 -28 -17 -55 -32 -62 -32 -7 0 -26 -11 -42 -25 -16 -13 -50 -33
-75 -44 -24 -11 -48 -24 -52 -30 -3 -7 -28 -21 -53 -33 -26 -12 -60 -32 -75
-45 -16 -13 -34 -23 -40 -23 -7 0 -25 -12 -42 -26 -16 -14 -51 -36 -76 -49
-25 -13 -51 -31 -58 -39 -8 -9 -19 -16 -27 -16 -7 0 -28 -13 -46 -29 -18 -15
-51 -37 -73 -49 -22 -11 -49 -29 -59 -41 -11 -12 -23 -21 -27 -21 -7 0 -102
-68 -169 -120 -13 -11 -28 -20 -33 -20 -5 0 -27 -15 -47 -32 -21 -18 -64 -51
-95 -73 -31 -22 -72 -52 -90 -67 -18 -16 -36 -28 -40 -28 -4 0 -29 -18 -54
-41 -60 -53 -68 -59 -79 -59 -4 0 -22 -15 -38 -32 -16 -18 -45 -44 -64 -58
-19 -14 -48 -37 -65 -52 -117 -103 -195 -168 -202 -168 -4 0 -42 -32 -83 -71
-147 -138 -373 -355 -419 -402 -25 -27 -105 -108 -177 -182 -72 -74 -152 -162
-179 -197 -27 -35 -60 -75 -74 -89 -14 -15 -42 -46 -61 -68 -19 -23 -51 -59
-70 -81 -31 -34 -62 -72 -200 -246 -19 -24 -51 -64 -70 -90 -19 -25 -47 -59
-62 -76 -16 -16 -28 -33 -28 -36 0 -4 -17 -28 -37 -54 -21 -25 -46 -59 -55
-74 -10 -16 -33 -49 -53 -74 -19 -25 -47 -65 -62 -90 -15 -25 -38 -59 -52 -77
-62 -77 -77 -99 -98 -145 -12 -26 -27 -48 -33 -48 -6 0 -19 -19 -29 -43 -10
-23 -26 -48 -35 -56 -9 -8 -24 -30 -33 -50 -9 -20 -29 -51 -45 -69 -15 -18
-28 -37 -28 -43 0 -6 -14 -30 -31 -55 -16 -24 -35 -58 -41 -75 -6 -17 -21 -34
-34 -39 -16 -6 -24 -18 -24 -32 0 -33 -32 -93 -50 -93 -9 0 -16 -11 -18 -25
-5 -43 -23 -78 -48 -95 -14 -9 -24 -25 -24 -40 0 -35 -19 -72 -47 -90 -17 -11
-23 -25 -23 -51 0 -26 -8 -43 -35 -70 -25 -24 -35 -44 -35 -65 0 -21 -9 -39
-31 -59 -24 -21 -32 -39 -36 -74 -4 -34 -14 -54 -35 -75 -22 -21 -31 -40 -32
-68 -3 -45 -31 -104 -49 -100 -7 1 -13 -11 -15 -28 -2 -16 -6 -37 -9 -45 -8
-20 -10 -27 -12 -45 0 -9 -12 -20 -25 -25 -19 -7 -25 -18 -30 -64 -6 -43 -14
-63 -37 -85 -21 -22 -29 -39 -29 -65 0 -48 -22 -116 -37 -116 -17 0 -34 -35
-32 -63 4 -49 -2 -69 -31 -95 -25 -23 -31 -39 -41 -107 -10 -62 -18 -84 -36
-100 -18 -15 -24 -33 -27 -75 -5 -78 -15 -107 -40 -123 -18 -12 -25 -31 -35
-98 -15 -101 -20 -121 -31 -114 -12 8 -19 -20 -26 -103 -6 -80 -36 -168 -53
-157 -13 7 -18 -18 -25 -113 -3 -43 -12 -84 -21 -98 -9 -14 -13 -30 -9 -36 4
-6 3 -8 -4 -4 -13 8 -30 -72 -35 -176 -4 -65 -9 -82 -31 -108 -14 -18 -26 -39
-26 -48 -1 -72 -23 -227 -39 -277 -25 -74 -41 -192 -41 -293 0 -42 -7 -106
-15 -142 -28 -124 -35 -176 -55 -415 -11 -132 -27 -278 -35 -325 -11 -67 -14
-204 -14 -640 1 -482 3 -572 19 -685 10 -71 23 -193 30 -270 16 -209 29 -316
46 -376 8 -30 17 -101 19 -159 8 -152 27 -276 55 -345 13 -32 21 -74 30 -163
5 -47 18 -102 29 -125 11 -24 25 -78 31 -122 6 -44 22 -118 35 -165 13 -47 30
-119 38 -160 9 -41 27 -102 40 -135 14 -33 28 -82 31 -110 6 -60 15 -93 32
-120 7 -11 20 -58 29 -105 11 -52 24 -92 36 -102 18 -18 39 -77 39 -113 0 -12
9 -39 21 -60 11 -22 30 -76 41 -120 11 -43 28 -91 38 -106 11 -14 25 -48 32
-75 7 -27 20 -60 29 -74 9 -14 27 -59 39 -100 12 -41 30 -88 42 -103 11 -16
23 -53 27 -83 4 -30 15 -60 24 -67 14 -11 47 -93 47 -119 0 -5 13 -26 30 -45
16 -18 30 -41 30 -51 0 -39 21 -90 39 -95 19 -5 41 -59 41 -104 0 -12 12 -30
29 -42 26 -19 46 -67 42 -99 -1 -7 4 -11 10 -10 11 3 119 -192 119 -215 0 -5
16 -31 35 -57 19 -26 35 -55 35 -63 0 -9 11 -28 24 -44 32 -39 53 -85 49 -105
-3 -11 1 -18 10 -18 22 0 37 -23 50 -77 8 -34 19 -51 35 -58 13 -5 25 -21 28
-35 12 -51 15 -60 26 -57 17 3 57 -60 51 -81 -4 -18 24 -52 36 -42 3 3 13 -8
21 -25 8 -16 27 -46 42 -66 15 -19 34 -52 43 -72 8 -20 20 -37 25 -37 5 0 17
-14 25 -30 9 -17 34 -54 55 -83 22 -29 39 -59 37 -67 -1 -8 3 -14 10 -13 16 3
35 -22 42 -60 4 -17 10 -30 13 -27 11 10 47 -32 54 -64 3 -17 21 -43 39 -59
19 -15 35 -37 37 -50 2 -14 11 -23 25 -25 17 -3 25 -14 33 -43 8 -27 16 -39
29 -39 18 0 51 -52 51 -79 0 -6 11 -16 24 -21 15 -5 29 -22 35 -43 7 -19 22
-39 35 -45 14 -6 27 -23 31 -41 4 -21 15 -32 36 -40 18 -6 29 -17 29 -29 0
-20 23 -46 32 -36 3 3 19 -12 34 -33 16 -21 37 -44 46 -51 10 -7 18 -19 18
-26 0 -8 20 -36 45 -62 25 -27 45 -54 45 -60 0 -6 11 -17 25 -24 13 -7 27 -21
30 -31 3 -9 21 -29 40 -43 18 -14 37 -35 40 -46 3 -11 13 -20 21 -20 8 0 22
-13 32 -30 10 -16 30 -39 45 -50 14 -11 28 -28 31 -38 3 -9 19 -25 36 -34 16
-9 30 -24 30 -32 0 -9 13 -22 29 -31 16 -8 33 -24 36 -35 4 -12 18 -25 31 -30
13 -5 29 -20 35 -34 6 -13 22 -29 35 -35 13 -6 29 -22 36 -36 6 -14 22 -28 35
-31 13 -4 30 -19 39 -35 8 -16 21 -29 28 -29 8 0 26 -16 40 -35 15 -19 33 -35
41 -35 8 0 21 -13 30 -30 9 -16 20 -30 25 -30 8 0 48 -33 109 -90 9 -8 54 -48
100 -88 47 -40 91 -81 98 -92 8 -11 20 -20 27 -20 7 0 25 -14 39 -30 15 -17
32 -30 38 -30 7 0 39 -24 73 -53 34 -30 81 -68 105 -85 24 -18 50 -41 57 -51
8 -10 24 -21 38 -25 13 -3 31 -17 40 -31 9 -14 21 -25 27 -25 15 0 125 -78
160 -112 15 -16 34 -28 43 -28 8 0 23 -8 33 -18 10 -10 37 -30 59 -45 23 -15
52 -39 64 -52 13 -14 32 -25 42 -25 10 0 27 -9 38 -20 10 -10 36 -28 57 -39
21 -10 49 -31 62 -45 14 -14 32 -26 42 -26 10 0 30 -10 46 -23 15 -13 46 -34
68 -47 22 -13 53 -34 68 -47 16 -13 35 -23 43 -23 7 0 34 -16 60 -35 25 -19
54 -35 64 -35 10 0 32 -11 48 -25 17 -14 47 -32 69 -41 21 -9 48 -27 60 -40
12 -13 31 -24 42 -24 11 0 40 -16 65 -35 26 -19 53 -35 62 -35 20 0 52 -17 87
-46 16 -13 39 -24 51 -24 12 0 45 -16 72 -35 27 -19 59 -35 71 -35 12 0 38
-14 56 -30 19 -17 50 -33 68 -36 40 -8 67 -20 94 -44 11 -10 37 -20 57 -23 21
-3 57 -19 80 -36 24 -17 62 -33 84 -37 23 -3 54 -17 68 -29 15 -13 51 -29 79
-35 29 -6 70 -23 92 -39 24 -17 60 -31 90 -35 28 -4 59 -16 70 -25 24 -22 78
-41 115 -41 15 0 44 -13 65 -30 21 -16 47 -30 59 -30 36 0 139 -30 166 -48 14
-9 55 -22 92 -28 46 -8 78 -20 99 -38 19 -16 43 -26 62 -26 49 0 146 -26 165
-43 11 -10 55 -21 112 -28 73 -9 103 -17 128 -36 25 -19 52 -26 122 -33 55 -6
110 -19 143 -34 36 -15 91 -28 158 -35 70 -8 119 -19 155 -36 35 -17 70 -25
106 -25 78 0 169 -16 261 -44 65 -19 121 -27 272 -35 127 -8 215 -18 265 -31
54 -15 124 -22 254 -27 162 -6 179 -8 184 -25 4 -17 33 -18 699 -18 667 0 695
1 700 18 4 17 21 19 190 25 141 5 201 12 252 27 63 18 240 37 418 43 45 2 88
8 95 15 23 18 135 41 243 48 73 5 112 13 145 30 30 15 79 26 150 34 58 6 123
19 145 30 46 21 114 36 200 45 37 3 67 13 80 24 25 24 86 41 145 41 25 0 55 6
66 14 30 22 139 56 176 56 18 0 43 6 54 13 12 6 35 20 51 29 17 9 58 22 92 27
34 6 74 19 89 29 15 11 47 23 72 26 66 11 108 25 147 52 19 12 55 26 81 30 26
3 56 15 67 25 12 10 57 28 100 38 44 11 85 27 91 35 14 19 57 36 94 36 16 0
41 11 57 24 16 13 52 31 81 39 28 9 67 27 84 40 18 14 49 27 69 31 21 4 53 17
72 30 19 13 60 31 91 40 32 9 59 23 62 31 3 7 31 23 62 36 31 12 66 30 77 39
11 9 39 22 62 30 23 7 52 22 63 32 11 11 35 24 53 30 17 6 51 24 74 40 23 15
48 28 56 28 8 0 39 18 68 40 30 22 59 40 65 40 7 0 35 16 64 35 29 19 59 35
67 35 9 0 31 13 50 30 18 16 39 30 46 30 7 0 32 16 56 35 24 19 51 35 61 35 9
0 25 9 35 20 10 11 42 34 71 50 28 17 57 37 64 45 7 8 20 15 30 15 10 0 36 15
59 32 44 36 117 89 138 101 7 4 19 10 26 15 30 16 112 78 132 98 11 12 37 29
58 37 20 9 37 21 37 26 0 6 17 19 38 30 20 11 51 32 69 48 18 15 53 44 78 63
26 19 62 50 81 68 19 17 41 32 49 32 8 0 20 8 27 18 7 9 30 30 51 46 21 15 51
40 67 55 16 14 47 42 69 61 23 19 57 50 76 68 19 17 41 32 49 32 8 0 18 9 21
21 4 11 19 26 33 32 33 15 182 158 182 175 0 6 4 12 8 12 4 0 38 29 74 65 37
36 69 65 73 65 3 0 36 29 73 65 37 36 70 65 74 65 3 0 16 16 28 34 11 19 29
38 40 41 10 3 25 21 35 40 9 19 22 35 30 35 8 0 15 6 15 13 0 13 20 34 90 97
19 17 40 35 45 41 6 6 28 29 51 52 22 23 44 50 47 60 4 9 17 22 31 28 13 6 27
22 31 36 3 13 16 29 30 35 13 6 26 21 29 34 3 12 20 32 36 44 17 12 30 27 30
33 0 6 17 29 38 49 80 81 93 97 107 132 9 21 26 41 40 46 15 6 25 18 27 37 2
17 12 32 28 40 14 7 25 18 25 25 1 22 35 66 54 71 11 2 22 17 25 35 4 16 18
40 32 53 14 13 32 37 40 52 8 15 26 32 40 37 19 8 24 15 19 29 -4 14 3 26 29
46 19 14 41 43 49 64 9 21 27 45 41 55 14 9 26 25 26 36 0 11 14 29 30 42 17
12 30 30 30 39 0 10 5 21 10 24 6 3 10 15 10 26 0 12 10 23 25 29 18 7 25 17
25 37 1 31 15 52 45 69 11 6 20 17 20 25 1 31 30 81 52 90 19 7 23 14 18 30
-5 15 2 28 28 53 21 20 40 50 47 75 8 29 18 45 36 51 14 6 24 18 24 29 0 33
29 89 50 96 11 3 20 14 20 24 0 31 27 85 49 99 14 8 21 23 21 42 0 22 10 41
35 66 22 22 35 44 35 61 0 32 38 95 52 87 6 -4 8 -2 5 3 -16 25 43 140 64 127
5 -3 9 6 9 19 0 40 20 85 46 102 18 12 24 24 24 53 0 38 31 110 45 104 13 -6
25 21 25 55 0 40 28 100 49 106 10 2 21 25 30 63 8 35 22 67 36 80 15 14 24
37 29 76 5 40 14 62 31 78 14 13 27 39 31 59 10 62 26 105 46 127 11 13 23 45
27 78 5 37 15 64 31 81 16 17 27 47 36 100 7 43 22 89 35 106 13 18 25 58 32
102 7 52 17 79 34 98 18 20 27 44 33 90 8 67 34 155 52 176 5 7 14 50 19 95 7
63 16 92 36 120 21 31 27 56 34 127 5 55 18 113 33 150 15 38 28 99 36 168 7
71 18 122 32 148 14 28 24 79 33 170 8 71 23 159 35 195 21 62 24 93 44 420 3
47 13 107 21 135 17 55 35 268 35 422 0 92 2 103 20 113 20 10 20 21 20 528 0
505 0 518 -20 535 -18 15 -20 29 -20 124 -1 158 -16 341 -34 403 -9 31 -22
152 -30 280 -12 178 -19 236 -36 280 -13 34 -26 106 -34 190 -10 98 -19 146
-34 175 -14 27 -25 75 -32 146 -7 70 -19 128 -36 169 -15 38 -28 95 -33 151
-6 69 -14 97 -33 127 -19 27 -29 63 -37 127 -7 50 -18 97 -25 105 -18 22 -35
78 -44 147 -5 39 -18 76 -34 100 -16 23 -29 59 -33 93 -3 30 -19 80 -35 110
-16 31 -32 80 -36 110 -4 35 -16 67 -32 88 -15 20 -29 56 -34 90 -5 31 -17 66
-27 77 -22 24 -29 44 -42 109 -5 30 -20 61 -39 82 -24 28 -30 44 -30 81 0 36
-6 53 -24 72 -14 15 -30 49 -37 76 -7 28 -23 61 -35 75 -31 36 -44 65 -44 99
0 21 -7 35 -23 46 -22 14 -54 81 -44 92 3 2 1 18 -5 34 -6 17 -13 28 -15 25
-9 -9 -41 38 -49 70 -4 16 -18 43 -30 60 -13 17 -30 49 -39 73 -8 23 -23 54
-34 67 -11 14 -25 42 -32 62 -7 20 -25 54 -40 76 -16 22 -29 52 -29 68 0 21
-6 31 -19 35 -23 6 -51 60 -51 96 0 18 -8 30 -27 39 -21 10 -29 23 -36 58 -6
29 -19 54 -38 72 -16 15 -29 36 -29 48 0 11 -14 34 -30 52 -17 17 -35 48 -40
69 -8 27 -16 39 -33 41 -15 2 -26 14 -34 39 -6 20 -24 49 -38 63 -14 14 -32
41 -40 59 -7 18 -23 41 -34 51 -12 11 -21 25 -21 32 0 7 -15 32 -34 57 -19 24
-39 54 -45 66 -6 11 -23 32 -36 45 -14 14 -25 30 -25 37 0 6 -18 31 -40 56
-22 25 -40 50 -40 56 0 5 -13 25 -30 44 -17 18 -30 40 -30 48 0 8 -9 20 -20
28 -11 7 -30 28 -42 45 -54 72 -91 119 -118 150 -17 18 -30 42 -30 52 0 11 -6
20 -13 20 -18 0 -47 33 -47 53 0 9 -11 24 -25 33 -14 9 -32 31 -41 50 -9 18
-25 36 -36 40 -11 3 -26 21 -34 40 -8 20 -25 39 -39 44 -14 5 -25 14 -25 19 0
5 -17 27 -37 49 -21 21 -55 59 -76 83 -60 71 -218 239 -409 436 -77 80 -367
352 -435 408 -20 17 -68 60 -107 97 -126 119 -150 140 -188 165 -20 14 -39 31
-42 39 -3 8 -14 14 -24 14 -20 0 -52 29 -52 47 0 6 -12 13 -27 17 -24 5 -136
90 -237 180 -16 14 -33 26 -38 26 -5 0 -43 26 -85 58 -41 31 -88 64 -105 74
-41 23 -69 49 -62 59 3 5 -1 6 -9 3 -8 -3 -34 11 -58 31 -24 19 -58 41 -74 49
-17 8 -39 24 -49 35 -11 12 -25 21 -32 21 -7 0 -33 16 -58 35 -25 19 -60 42
-78 50 -33 16 -112 67 -158 103 -14 10 -36 23 -50 27 -14 4 -47 23 -75 41 -27
19 -55 34 -61 34 -6 0 -17 6 -23 13 -6 8 -32 24 -58 37 -27 13 -61 33 -78 45
-33 23 -97 57 -201 108 -39 19 -74 39 -78 45 -3 6 -19 13 -35 17 -15 3 -52 22
-82 40 -29 19 -60 35 -67 35 -8 0 -34 14 -59 30 -24 17 -53 30 -64 30 -27 0
-81 29 -97 51 -7 11 -22 19 -34 19 -40 0 -101 24 -106 42 -5 19 -15 23 -79 33
-28 4 -47 14 -57 29 -11 18 -34 27 -101 41 -61 13 -89 24 -96 37 -6 11 -21 18
-38 18 -41 0 -94 20 -111 42 -9 11 -48 27 -95 39 -43 10 -88 28 -100 38 -13
12 -47 22 -96 29 -59 8 -81 15 -100 34 -17 17 -41 27 -78 32 -29 4 -76 17
-105 30 -30 13 -78 27 -107 31 -73 9 -149 34 -156 51 -3 8 -17 14 -32 13 -38
-2 -139 25 -188 49 -39 20 -179 45 -196 35 -16 -9 -108 20 -117 37 -7 14 -26
18 -92 22 -93 6 -228 35 -243 53 -6 7 -71 17 -160 25 -83 7 -163 18 -180 25
-44 19 -110 31 -190 34 -86 2 -267 28 -303 43 -15 6 -119 14 -232 19 -213 8
-240 12 -240 35 0 12 -99 14 -635 14 -534 0 -635 -2 -635 -14z m505 -8721 l0
-3430 -1455 0 c-1284 0 -1523 3 -1551 21 -4 2 -9 -1 -11 -7 -2 -7 -22 -7 -66
0 -34 5 -144 17 -244 26 -126 12 -207 24 -261 41 -43 13 -95 24 -116 24 -51 0
-142 28 -163 50 -11 11 -45 22 -100 30 -46 6 -96 20 -113 29 -16 10 -55 23
-87 30 -31 7 -76 25 -100 41 -24 16 -64 31 -93 35 -27 4 -74 20 -102 36 -29
16 -58 29 -64 29 -6 0 -34 16 -63 35 -29 19 -59 35 -66 35 -7 0 -38 16 -70 35
-32 19 -61 35 -65 35 -4 0 -19 9 -33 20 -15 12 -65 45 -112 75 -47 30 -92 60
-100 68 -8 8 -25 20 -38 26 -35 19 -315 263 -360 315 -9 11 -29 31 -43 45 -51
50 -173 197 -200 240 -9 14 -23 32 -32 40 -10 7 -17 20 -17 27 0 8 -12 24 -26
37 -14 12 -32 37 -40 56 -8 18 -27 49 -44 67 -16 19 -30 43 -30 53 0 10 -9 26
-21 37 -29 26 -50 70 -51 105 -1 16 -3 27 -6 24 -17 -17 -62 67 -62 116 0 18
-5 28 -12 27 -18 -4 -59 86 -61 134 -1 22 -3 35 -5 28 -8 -23 -53 70 -59 122
-4 31 -13 59 -24 68 -17 15 -42 87 -34 100 10 15 -16 141 -41 196 -21 47 -27
80 -31 159 -3 72 -12 123 -31 180 l-27 80 0 460 c0 454 1 461 23 525 16 43 26
104 32 180 6 90 14 128 34 174 25 57 52 189 41 206 -8 12 22 85 34 83 15 -4
33 33 30 65 -4 54 2 73 31 104 21 21 30 41 30 64 0 42 35 124 53 124 10 0 16
16 20 46 5 47 36 101 56 97 6 -2 10 8 9 21 -2 28 16 68 49 109 13 16 23 34 23
41 0 20 40 67 51 61 5 -4 9 2 9 13 0 32 31 83 56 92 14 6 22 15 18 23 -7 18
44 79 58 70 7 -3 8 -1 4 6 -4 6 0 24 10 39 33 51 108 132 121 132 8 0 19 13
24 29 6 15 21 33 35 39 13 7 29 23 36 37 6 14 15 25 19 25 5 0 40 30 79 68 38
37 99 92 135 122 36 30 79 67 95 83 17 15 37 27 45 27 8 0 22 11 30 24 9 13
27 27 40 30 13 3 36 18 50 32 14 14 44 34 68 44 23 10 48 28 55 39 7 12 21 21
31 21 10 0 42 16 70 35 28 19 59 35 70 35 10 0 38 16 61 35 25 21 53 35 68 35
15 0 49 16 76 35 27 19 59 35 71 35 33 0 86 21 106 41 10 10 41 21 69 25 27 4
69 19 93 33 29 19 67 31 123 39 48 6 100 21 130 37 29 15 87 32 137 40 47 8
106 21 131 29 24 8 116 20 203 26 87 6 214 19 283 28 110 15 293 17 1565 22
792 3 1463 6 1490 5 l50 0 0 -3430z m2690 3421 c492 -2 756 -7 787 -14 26 -6
150 -18 277 -26 181 -12 240 -20 273 -34 24 -11 72 -22 108 -26 76 -7 135 -24
170 -48 14 -10 61 -23 104 -29 54 -7 96 -20 131 -40 28 -16 63 -29 78 -29 34
0 77 -17 102 -40 11 -10 40 -21 65 -25 25 -4 70 -23 100 -41 31 -19 64 -34 75
-34 11 0 42 -16 69 -35 27 -19 58 -35 68 -35 11 0 36 -13 56 -29 20 -16 48
-32 62 -36 14 -4 36 -17 50 -30 14 -12 39 -27 56 -34 18 -7 44 -26 60 -42 15
-16 33 -29 41 -29 7 0 28 -13 46 -30 19 -16 38 -30 42 -30 11 0 164 -129 220
-186 16 -16 38 -33 48 -37 9 -3 22 -17 28 -31 6 -13 22 -29 35 -35 13 -6 29
-21 35 -33 5 -13 23 -31 40 -40 16 -9 29 -23 29 -31 0 -17 34 -50 43 -41 3 3
13 -6 23 -21 9 -14 30 -40 46 -57 36 -39 60 -83 50 -94 -4 -5 -3 -6 2 -1 14
11 56 -33 56 -57 0 -12 9 -25 22 -31 25 -11 60 -72 53 -93 -3 -7 -1 -11 4 -8
11 7 37 -22 56 -64 9 -19 27 -51 41 -70 14 -19 28 -47 31 -62 3 -15 14 -35 25
-45 22 -19 48 -76 48 -103 0 -9 9 -25 20 -35 11 -10 28 -44 37 -74 8 -31 28
-82 44 -113 16 -32 29 -68 29 -81 0 -13 12 -46 26 -73 14 -26 32 -82 39 -124
8 -41 25 -110 39 -153 14 -42 29 -110 32 -150 3 -39 18 -117 33 -172 l26 -100
0 -490 c-1 -337 -4 -503 -12 -530 -26 -91 -41 -164 -47 -232 -3 -40 -17 -107
-31 -148 -13 -42 -31 -112 -40 -157 -8 -44 -24 -95 -34 -112 -10 -17 -24 -55
-31 -85 -7 -30 -21 -69 -31 -86 -11 -17 -28 -60 -40 -96 -11 -35 -28 -72 -37
-82 -8 -9 -24 -41 -34 -70 -10 -28 -27 -59 -38 -69 -11 -9 -20 -24 -20 -33 0
-27 -39 -95 -55 -95 -8 0 -15 -3 -16 -7 0 -5 -2 -18 -3 -30 -3 -29 -34 -73
-48 -70 -7 1 -12 -5 -13 -13 -1 -25 -32 -87 -48 -96 -8 -5 -21 -23 -30 -39 -8
-17 -24 -39 -36 -49 -12 -11 -21 -23 -21 -29 0 -5 -16 -28 -36 -51 -19 -22
-54 -63 -77 -89 -91 -106 -267 -275 -387 -373 -19 -16 -41 -35 -49 -42 -15
-14 -70 -53 -126 -87 -17 -11 -50 -33 -72 -50 -23 -16 -54 -38 -69 -47 -16
-10 -38 -23 -49 -30 -72 -46 -116 -69 -146 -80 -19 -6 -52 -24 -73 -40 -21
-15 -46 -28 -54 -28 -8 0 -39 -14 -68 -31 -30 -17 -72 -32 -94 -34 -23 -3 -51
-10 -64 -17 -59 -33 -115 -57 -161 -67 -27 -7 -57 -18 -65 -25 -8 -8 -52 -19
-96 -26 -45 -7 -93 -18 -105 -26 -59 -34 -90 -42 -178 -48 -96 -6 -115 -11
-106 -26 9 -15 -29 -22 -155 -31 -146 -9 -290 -22 -520 -44 -143 -13 -347 -15
-1540 -13 l-1375 3 -3 3420 c-1 1881 0 3425 2 3430 3 10 439 10 2251 1z
m-8780 -7826 l550 -5 53 -27 c30 -16 68 -28 85 -28 42 0 138 -26 147 -39 3 -6
31 -18 61 -27 57 -17 140 -66 200 -120 20 -17 46 -35 57 -38 12 -4 24 -15 27
-26 3 -10 21 -28 40 -39 19 -11 35 -26 35 -32 0 -7 16 -27 35 -45 20 -18 38
-46 41 -63 4 -17 18 -40 32 -51 16 -13 27 -35 33 -67 6 -31 18 -56 33 -69 20
-17 26 -36 31 -85 4 -35 16 -98 28 -139 18 -63 22 -102 22 -245 0 -150 -3
-178 -22 -239 -13 -37 -23 -90 -23 -116 0 -60 -13 -96 -45 -126 -14 -13 -22
-29 -20 -36 8 -19 -23 -90 -46 -106 -10 -7 -19 -19 -19 -26 0 -33 -217 -266
-247 -266 -7 0 -23 -10 -34 -21 -37 -37 -189 -109 -229 -109 -26 0 -49 -9 -75
-30 -21 -16 -43 -30 -49 -31 -6 0 -40 -2 -76 -5 -36 -2 -99 -10 -140 -18 -60
-11 -165 -12 -540 -7 -393 6 -468 5 -482 -7 -24 -20 -44 -9 -52 28 -3 18 -6
536 -6 1150 0 1143 0 1143 35 1121 6 -3 258 -8 560 -11z m6106 0 c81 0 149 5
160 11 51 27 49 73 49 -1146 0 -624 -3 -1140 -6 -1149 -7 -19 -37 -21 -52 -3
-12 14 -264 16 -315 2 -20 -5 -33 -3 -46 9 -10 9 -25 16 -34 16 -19 0 -37 29
-37 59 0 13 -8 21 -22 23 -16 2 -27 16 -39 48 -9 25 -24 46 -32 48 -19 4 -51
50 -52 75 0 10 -11 23 -24 30 -15 7 -28 26 -33 45 -5 18 -13 30 -18 27 -11 -7
-130 150 -130 172 0 10 -10 23 -22 28 -13 6 -28 25 -34 45 -6 19 -19 36 -28
38 -17 4 -50 56 -50 82 -1 8 -13 21 -28 28 -16 7 -29 17 -29 23 -1 5 -3 14 -4
19 -1 6 -3 16 -4 24 0 8 -11 16 -23 18 -17 2 -27 14 -36 42 -7 22 -28 55 -47
73 -19 19 -35 43 -35 53 0 11 -5 20 -12 20 -20 0 -48 32 -48 57 0 16 -8 27
-25 33 -14 5 -33 26 -43 46 -9 20 -30 52 -47 69 -66 72 -95 117 -95 150 0 40
-21 60 -89 82 -53 17 -54 17 -72 -6 -17 -21 -18 -59 -19 -736 0 -392 -2 -720
-6 -728 -9 -23 -34 -29 -58 -14 -16 11 -52 13 -156 9 -74 -2 -143 -9 -152 -14
-12 -5 -25 -5 -38 2 -20 11 -20 21 -20 1145 0 808 3 1136 11 1141 14 8 455 8
469 -1 5 -3 10 -13 10 -20 0 -8 13 -24 29 -36 16 -12 32 -34 35 -50 4 -20 12
-29 25 -29 12 0 28 -15 43 -39 26 -45 136 -195 167 -229 24 -27 54 -82 45 -82
-4 0 9 -17 29 -37 21 -20 37 -44 37 -53 0 -9 14 -26 30 -38 17 -13 30 -31 30
-42 0 -10 13 -28 29 -39 15 -11 34 -35 42 -53 7 -18 25 -43 40 -55 15 -13 29
-33 33 -45 3 -13 19 -31 36 -40 21 -12 30 -25 30 -42 0 -17 8 -29 27 -38 17
-8 31 -26 38 -48 5 -19 25 -49 43 -67 17 -17 32 -38 32 -47 0 -8 9 -20 21 -26
11 -7 27 -26 34 -44 8 -18 25 -40 38 -49 14 -9 29 -34 36 -60 8 -28 21 -49 36
-57 13 -7 28 -25 34 -40 16 -47 61 -48 114 -2 16 15 17 58 17 715 -1 537 2
702 11 708 7 4 23 3 36 -2 14 -5 87 -9 164 -9z m-3865 -26 c13 -16 33 -48 44
-71 12 -23 28 -47 36 -54 17 -14 45 -75 41 -90 -1 -5 9 -15 22 -22 14 -6 29
-25 34 -42 5 -16 20 -41 33 -55 12 -14 32 -46 43 -72 11 -27 25 -48 31 -48 6
0 18 -17 27 -37 8 -21 29 -57 46 -80 16 -23 31 -52 32 -65 1 -13 3 -26 4 -30
0 -5 10 -8 20 -8 20 0 45 -50 42 -82 -1 -9 9 -24 23 -33 14 -9 28 -30 31 -46
4 -16 14 -33 23 -38 22 -12 113 -2 117 13 2 6 6 24 9 39 4 17 16 31 32 37 14
6 22 15 18 21 -8 14 12 54 48 97 16 18 28 39 28 47 0 7 11 27 25 43 14 17 34
51 45 75 11 25 24 47 30 49 5 2 22 28 38 58 16 30 35 55 41 55 16 0 31 25 31
52 0 12 12 30 29 42 16 12 31 34 35 52 3 17 19 43 34 57 16 15 32 40 36 55 4
16 18 40 31 53 13 13 28 31 33 40 8 15 37 17 243 16 227 0 234 -1 237 -20 2
-14 -6 -25 -24 -34 -18 -8 -31 -25 -36 -46 -6 -20 -18 -37 -34 -44 -17 -8 -28
-24 -35 -54 -7 -26 -21 -49 -40 -63 -16 -12 -29 -29 -29 -38 0 -10 -13 -31
-28 -48 -16 -16 -35 -46 -42 -65 -8 -19 -27 -47 -42 -62 -15 -14 -28 -35 -28
-46 0 -11 -12 -29 -27 -40 -17 -13 -31 -35 -37 -63 -8 -30 -19 -47 -36 -56
-15 -8 -24 -20 -22 -31 1 -10 -16 -42 -38 -72 -22 -29 -40 -59 -40 -65 0 -7
-9 -20 -21 -31 -12 -10 -30 -37 -40 -59 -10 -22 -29 -52 -42 -65 -13 -14 -28
-39 -34 -55 -5 -17 -22 -36 -36 -43 -15 -7 -27 -21 -27 -32 0 -10 -18 -40 -40
-65 -22 -25 -40 -53 -40 -61 0 -8 -12 -26 -27 -40 l-28 -26 -5 -478 c-4 -340
-8 -482 -16 -490 -9 -9 -17 -9 -32 -1 -31 17 -295 19 -314 3 -20 -16 -45 -6
-51 21 -3 12 -6 229 -6 482 l0 460 -24 20 c-14 11 -32 36 -40 57 -8 20 -24 39
-35 42 -13 4 -25 23 -34 53 -9 31 -20 48 -36 54 -23 9 -26 14 -37 63 -3 15
-14 30 -23 33 -22 5 -52 57 -52 90 0 15 -3 23 -7 20 -8 -9 -53 32 -53 48 0 6
-18 34 -40 64 -22 29 -40 59 -40 66 0 8 -12 27 -27 43 -42 45 -103 146 -103
170 0 15 -9 26 -24 32 -18 6 -28 22 -36 51 -7 24 -25 55 -41 70 -16 15 -29 35
-29 46 0 10 -14 30 -30 45 -17 14 -33 41 -36 58 -4 18 -19 40 -35 52 -15 12
-31 34 -34 50 -4 18 -16 33 -30 38 -28 11 -48 43 -35 56 5 5 116 8 246 8 l236
-2 24 -28z m6212 22 c3 -3 5 -79 4 -168 0 -136 -3 -164 -16 -174 -12 -8 -164
-11 -558 -12 l-543 -1 -27 -31 -28 -30 0 -213 c0 -216 10 -288 41 -308 23 -15
1025 -12 1049 3 15 10 25 10 38 2 15 -10 17 -32 20 -188 2 -137 0 -176 -10
-176 -7 -1 -254 0 -549 0 l-536 1 -26 -40 -27 -41 0 -232 c0 -250 4 -273 50
-295 18 -8 180 -12 565 -15 345 -2 543 -7 547 -13 4 -5 8 -79 8 -163 0 -147
-1 -155 -22 -173 -24 -19 -48 -24 -63 -11 -13 9 -1455 -1 -1475 -10 -41 -21
-41 -44 -41 1146 0 625 2 1140 5 1144 5 8 1586 5 1594 -2z m1519 1 c239 -2
253 -3 280 -23 16 -12 55 -27 85 -33 31 -7 72 -23 90 -37 18 -13 50 -31 70
-40 21 -9 40 -26 44 -36 3 -11 19 -24 34 -30 16 -5 38 -25 49 -44 11 -19 24
-34 29 -34 5 0 20 -24 32 -52 12 -29 30 -63 40 -75 28 -36 46 -283 31 -431
-17 -171 -17 -171 -34 -190 -8 -9 -23 -37 -33 -62 -9 -25 -27 -56 -40 -70 -66
-72 -141 -140 -155 -140 -9 0 -21 -6 -27 -13 -16 -19 -100 -55 -145 -62 -67
-11 -75 -86 -17 -152 17 -19 33 -48 37 -64 3 -17 16 -35 29 -42 23 -12 41 -40
96 -148 13 -26 36 -61 51 -78 16 -19 27 -45 27 -61 0 -27 32 -70 52 -70 4 0 8
-10 8 -22 0 -31 24 -74 39 -70 12 2 53 -77 46 -89 -3 -3 6 -12 19 -19 13 -7
31 -29 39 -50 14 -37 14 -38 -9 -50 -19 -11 -27 -10 -49 4 -24 16 -45 17 -183
12 -87 -4 -171 -9 -188 -12 -27 -5 -34 -1 -52 28 -11 18 -32 44 -46 57 -14 14
-26 35 -26 47 0 33 -10 54 -26 54 -17 0 -36 35 -43 80 -4 23 -14 38 -29 45
-21 10 -38 44 -44 95 -2 14 -13 29 -26 35 -21 9 -42 57 -42 98 0 10 -11 22
-24 27 -16 6 -28 21 -34 43 -5 18 -26 55 -46 81 -20 26 -36 56 -36 66 0 10
-18 32 -39 49 l-39 31 -168 0 c-150 -1 -171 -3 -191 -19 l-23 -19 0 -384 c0
-210 -3 -393 -6 -405 -7 -25 -33 -30 -52 -11 -8 8 -59 13 -154 15 -122 2 -145
0 -161 -15 -18 -16 -20 -16 -33 3 -12 16 -14 190 -14 1129 0 665 -4 1117 -10
1126 -5 8 -5 19 0 25 8 9 237 10 1017 2z m1530 -13 c8 -10 11 -24 9 -30 -3 -7
4 -14 14 -17 10 -3 30 -27 43 -53 14 -27 37 -64 51 -83 14 -19 26 -40 26 -46
0 -7 9 -20 20 -30 12 -10 29 -39 40 -63 11 -24 31 -57 45 -74 14 -16 25 -34
25 -39 0 -5 16 -29 35 -55 21 -27 35 -57 35 -74 0 -18 8 -33 25 -44 14 -9 29
-34 36 -58 7 -24 25 -54 40 -68 14 -14 31 -44 38 -67 18 -66 38 -83 102 -87
67 -5 82 3 85 42 2 34 17 65 50 105 13 16 24 34 24 41 0 7 10 21 21 32 12 10
32 42 45 69 33 68 63 112 102 150 21 20 35 46 39 69 4 26 13 40 32 49 16 8 27
22 29 38 2 15 18 44 37 66 18 22 35 52 37 69 2 20 11 33 30 42 20 9 29 24 38
62 18 75 24 77 293 72 186 -3 227 -6 227 -18 0 -8 -4 -14 -10 -14 -5 0 -18
-21 -29 -46 -12 -27 -29 -48 -41 -51 -14 -4 -20 -14 -20 -34 0 -20 -9 -35 -33
-53 -22 -17 -36 -39 -44 -68 -8 -29 -19 -46 -35 -53 -13 -6 -24 -21 -26 -34
-5 -31 -31 -71 -46 -71 -6 0 -18 -21 -26 -48 -10 -30 -23 -50 -37 -57 -13 -5
-23 -19 -23 -30 -1 -11 -14 -38 -30 -60 -17 -22 -36 -54 -44 -71 -8 -17 -22
-36 -30 -43 -9 -7 -26 -33 -38 -57 -12 -24 -32 -54 -45 -66 -13 -12 -23 -29
-23 -38 0 -21 -29 -62 -40 -55 -10 6 -35 -23 -27 -31 3 -4 -3 -24 -14 -46 -11
-22 -23 -37 -26 -34 -11 11 -33 -16 -33 -40 0 -14 -11 -32 -29 -45 -16 -12
-33 -38 -40 -60 -7 -21 -23 -46 -36 -55 -14 -9 -29 -32 -35 -53 -6 -22 -10
-213 -10 -486 0 -247 -4 -456 -9 -464 -6 -9 -16 -11 -27 -7 -29 12 -303 16
-309 5 -10 -16 -44 -10 -55 10 -6 13 -10 177 -10 464 0 438 0 444 -21 468 -12
13 -30 43 -40 66 -10 23 -27 46 -38 52 -10 6 -22 25 -26 42 -4 16 -22 44 -41
61 -19 17 -34 39 -34 49 0 30 -11 49 -29 49 -10 0 -27 18 -39 43 -36 67 -89
148 -112 169 -11 10 -20 25 -20 32 0 8 -18 38 -40 67 -22 30 -40 64 -40 76 0
14 -6 23 -15 23 -18 0 -47 42 -50 73 -1 12 -3 25 -4 30 0 4 -12 12 -26 17 -15
6 -27 20 -31 37 -10 49 -14 55 -33 60 -12 3 -23 21 -31 49 -8 29 -23 52 -41
65 -16 11 -29 29 -29 39 0 29 -11 50 -26 50 -18 0 -54 58 -54 88 0 12 -5 22
-12 22 -29 0 -71 63 -54 81 2 2 111 3 242 2 217 -1 239 -3 251 -19z"/>
<path d="M7125 13910 c-66 -4 -127 -16 -180 -33 -44 -14 -111 -29 -148 -32
-52 -5 -74 -12 -94 -31 -15 -14 -38 -24 -55 -24 -51 0 -122 -22 -148 -46 -14
-12 -37 -25 -52 -28 -16 -3 -39 -8 -53 -11 -16 -4 -25 -12 -25 -25 0 -11 -9
-21 -22 -25 -37 -10 -71 -28 -101 -52 -16 -13 -34 -23 -41 -23 -12 0 -89 -55
-162 -114 -18 -14 -36 -26 -42 -26 -16 0 -289 -275 -307 -309 -8 -17 -19 -31
-24 -31 -4 0 -22 -23 -39 -50 -17 -28 -37 -49 -44 -48 -7 2 -12 -3 -10 -10 3
-19 -37 -92 -49 -89 -13 3 -26 -18 -34 -55 -3 -15 -18 -41 -34 -57 -17 -17
-31 -45 -35 -69 -3 -22 -17 -54 -31 -70 -17 -20 -28 -49 -33 -90 -6 -41 -16
-69 -34 -90 -18 -22 -27 -47 -32 -94 -7 -65 -30 -143 -47 -164 -17 -21 -29
-222 -29 -494 -1 -333 8 -507 27 -525 20 -20 39 -81 52 -165 7 -41 20 -88 31
-105 11 -17 26 -59 34 -93 8 -35 24 -79 36 -99 29 -50 52 -121 44 -135 -4 -6
-3 -8 4 -4 13 8 52 -40 52 -65 0 -10 5 -21 11 -24 6 -4 8 -13 5 -21 -3 -7 0
-16 6 -20 7 -5 8 -2 4 7 -4 8 3 1 16 -15 13 -17 25 -44 28 -60 4 -23 11 -32
27 -34 16 -2 25 -14 33 -41 5 -20 25 -52 45 -71 19 -19 35 -37 35 -42 0 -21
286 -285 338 -312 15 -8 37 -26 49 -40 13 -14 31 -26 42 -26 10 0 38 -16 62
-35 24 -19 52 -35 63 -35 10 0 44 -16 76 -35 32 -19 64 -35 72 -35 8 0 34 -13
59 -29 28 -17 72 -33 115 -40 38 -7 85 -20 105 -31 20 -10 71 -24 114 -30 43
-7 112 -24 154 -38 l76 -27 819 0 818 0 34 40 34 40 0 2129 0 2129 -22 36
c-12 20 -27 39 -32 43 -13 9 -1422 7 -1561 -2z"/>
<path d="M11995 13913 c-34 -26 -35 -61 -35 -2212 0 -2364 -6 -2181 69 -2201
29 -7 276 -10 819 -8 725 3 780 4 822 21 55 23 154 46 195 47 17 0 48 9 68 19
21 11 62 25 90 31 102 23 132 32 147 45 8 7 40 23 70 36 30 12 62 28 70 35 8
7 40 22 70 34 30 12 59 28 63 35 4 8 27 23 50 33 23 11 53 29 67 42 14 12 37
27 51 32 14 5 31 20 37 33 7 15 20 25 32 25 11 0 27 11 36 26 9 14 30 32 45
40 16 8 29 20 29 26 0 14 105 118 119 118 5 0 11 10 13 22 2 14 12 24 28 28
17 4 28 16 34 37 6 21 18 34 33 38 16 4 26 15 30 36 3 17 18 40 34 51 17 13
33 38 41 66 9 30 20 47 36 53 15 6 22 17 22 34 0 32 17 64 44 86 12 10 27 40
34 67 8 27 24 60 37 72 17 16 25 38 30 81 5 42 14 69 32 90 19 23 27 47 34
104 4 43 18 96 33 128 33 68 46 232 46 563 0 289 -14 485 -40 539 -26 55 -40
113 -40 161 0 25 -7 51 -19 65 -30 40 -40 63 -50 126 -7 42 -17 68 -34 86 -16
15 -28 41 -32 71 -6 35 -14 51 -35 66 -19 13 -29 32 -34 59 -4 28 -15 46 -36
61 -17 12 -30 30 -30 43 0 27 -10 42 -32 50 -10 3 -24 22 -32 42 -9 20 -30 51
-48 69 -18 19 -62 66 -98 105 -81 89 -70 79 -165 157 -44 36 -101 83 -127 105
-26 22 -61 42 -78 45 -17 4 -36 14 -43 23 -16 22 -63 51 -81 51 -8 0 -27 11
-43 24 -15 13 -48 30 -73 39 -25 8 -65 27 -90 40 -25 14 -70 28 -100 32 -30 4
-62 13 -70 20 -21 18 -72 32 -170 49 -47 8 -112 24 -145 37 l-60 22 -830 4
c-456 2 -835 0 -840 -4z"/>
<path d="M3938 6942 c-15 -2 -37 -15 -48 -29 -20 -25 -20 -38 -20 -753 0 -701
1 -729 19 -751 19 -23 24 -24 218 -30 208 -6 473 10 511 30 12 6 25 18 30 27
5 8 28 18 51 21 31 4 48 13 64 34 11 16 26 29 32 29 6 0 36 22 66 50 29 27 57
50 60 50 4 0 17 19 29 42 12 24 30 48 40 55 10 7 21 26 25 43 4 16 17 37 31
47 19 14 27 33 35 83 6 36 18 94 26 130 24 102 27 173 9 227 -8 27 -20 89 -27
138 -9 70 -16 95 -34 115 -13 14 -30 45 -37 69 -8 27 -21 46 -35 52 -12 4 -24
18 -28 30 -10 31 -133 148 -175 166 -19 8 -47 26 -62 38 -16 13 -53 28 -85 35
-32 6 -80 18 -108 28 -40 13 -101 18 -305 22 -140 3 -267 4 -282 2z"/>
<path d="M13438 6929 c-17 -9 -18 -36 -18 -344 l0 -334 28 -15 c22 -11 90 -15
332 -16 368 -2 337 -4 357 20 10 11 33 25 53 31 41 14 95 62 116 104 8 17 23
44 34 61 17 27 21 51 23 158 2 124 2 126 -25 153 -116 119 -141 138 -216 165
l-76 28 -295 0 c-183 0 -303 -5 -313 -11z"/>
</g>
</svg>
