<?xml version="1.0" standalone="no"?>
<!DOCTYPE svg PUBLIC "-//W3C//DTD SVG 20010904//EN"
 "http://www.w3.org/TR/2001/REC-SVG-20010904/DTD/svg10.dtd">
<svg version="1.0" xmlns="http://www.w3.org/2000/svg"
 width="2061.000000pt" height="2061.000000pt" viewBox="0 0 2061.000000 2061.000000"
 preserveAspectRatio="xMidYMid meet">
<metadata>
Created by potrace 1.11, written by Peter Selinger 2001-2013
</metadata>
<g transform="translate(0.000000,2061.000000) scale(0.100000,-0.100000)"
fill="#000000" stroke="none">
<path d="M10085 19984 c-3170 -66 -6111 -1591 -7953 -4124 -1018 -1399 -1638
-3040 -1797 -4755 -53 -569 -52 -1205 1 -1785 144 -1577 687 -3102 1577 -4432
382 -572 720 -982 1227 -1489 432 -433 794 -742 1234 -1056 1599 -1139 3432
-1780 5386 -1883 250 -13 850 -13 1095 0 2207 118 4287 933 5967 2338 1585
1325 2713 3112 3208 5083 278 1110 354 2260 225 3419 -178 1605 -771 3149
-1725 4491 -533 749 -1200 1448 -1935 2028 -1631 1287 -3646 2043 -5725 2150
-223 12 -595 18 -785 15z m187 -4837 c25 -13 44 -33 58 -61 l20 -42 0 -2849 0
-2849 -20 -42 c-14 -28 -33 -48 -58 -61 -35 -17 -90 -18 -1072 -21 -1084 -3
-1327 2 -1609 38 -570 73 -1054 244 -1458 516 -166 111 -257 186 -393 323
-404 406 -648 934 -737 1591 -22 169 -25 660 -5 845 63 563 250 1060 551 1458
525 696 1393 1103 2487 1166 77 5 603 8 1169 7 979 -1 1032 -2 1067 -19z
m2844 13 c580 -33 1038 -146 1474 -362 654 -324 1092 -824 1320 -1508 228
-683 205 -1585 -57 -2250 -320 -814 -966 -1380 -1882 -1651 -156 -46 -426
-102 -591 -123 -310 -40 -348 -41 -1470 -41 -1075 0 -1096 0 -1135 20 -22 11
-48 36 -60 55 -20 35 -20 43 -23 2874 -1 1888 1 2851 8 2876 6 21 19 49 31 64
44 56 23 55 1160 55 599 1 1123 -3 1225 -9z m-8485 -7291 c282 -28 497 -112
693 -269 275 -221 427 -613 387 -1003 -48 -483 -315 -822 -762 -971 -200 -67
-224 -69 -836 -73 l-553 -5 0 1166 0 1166 484 0 c267 0 530 -5 587 -11z m2058
-456 c157 -255 288 -463 291 -463 3 0 134 208 291 463 l285 462 277 3 c152 1
277 0 277 -3 0 -4 -198 -312 -440 -687 l-440 -680 0 -479 0 -479 -245 0 -245
0 0 473 0 473 -443 680 c-244 373 -446 685 -451 692 -6 10 49 12 274 10 l282
-3 287 -462z m2687 -263 c297 -401 542 -729 547 -730 4 0 7 329 7 730 l0 730
245 0 245 0 0 -1165 0 -1165 -239 0 -238 0 -554 755 c-304 415 -557 755 -561
755 -4 0 -8 -340 -8 -755 l0 -755 -245 0 -245 0 0 1165 0 1165 254 0 253 0
539 -730z m3164 515 l0 -215 -577 -2 -578 -3 0 -245 0 -245 568 -3 567 -2 0
-215 0 -215 -570 0 -570 0 2 -267 3 -268 578 -3 577 -2 0 -215 0 -215 -825 0
-825 0 0 1165 0 1165 825 0 825 0 0 -215z m1600 205 c388 -47 635 -301 666
-685 17 -219 -73 -463 -217 -588 -65 -56 -159 -112 -223 -133 -28 -9 -55 -20
-59 -24 -7 -6 260 -468 495 -857 l20 -33 -284 0 -284 0 -230 415 -229 415
-187 0 -188 0 0 -415 0 -415 -245 0 -245 0 0 1165 0 1165 563 0 c321 0 599 -4
647 -10z m1649 -457 c157 -255 288 -463 291 -463 3 0 134 208 291 463 l285
462 277 3 c152 1 277 0 277 -3 0 -4 -198 -312 -440 -687 l-440 -680 0 -479 0
-479 -245 0 -245 0 0 473 0 473 -443 680 c-244 373 -446 685 -451 692 -6 10
49 12 274 10 l282 -3 287 -462z"/>
<path d="M8091 14059 c-355 -26 -645 -97 -911 -225 -369 -178 -621 -424 -785
-767 -130 -270 -185 -538 -185 -895 1 -344 60 -622 186 -873 292 -583 864
-911 1689 -969 198 -14 983 -13 1024 1 65 23 61 -113 61 1864 0 1977 4 1841
-61 1864 -38 13 -837 13 -1018 0z"/>
<path d="M11943 14063 c-13 -2 -32 -16 -43 -30 -20 -26 -20 -35 -20 -1839 l0
-1813 24 -28 24 -28 519 1 c561 0 652 6 912 60 274 56 571 180 771 321 129 92
319 283 399 403 151 227 242 468 288 770 22 144 24 499 4 640 -40 286 -133
537 -282 761 -90 136 -291 334 -434 428 -317 208 -678 319 -1140 350 -143 10
-975 13 -1022 4z"/>
<path d="M4055 7439 c-3 -8 -4 -338 -3 -734 l3 -720 275 1 c245 2 284 4 355
23 157 41 278 119 377 242 114 143 165 335 147 554 -21 254 -155 460 -362 559
-142 68 -199 78 -514 84 -227 4 -273 2 -278 -9z"/>
<path d="M13425 7438 c-3 -7 -4 -150 -3 -318 l3 -305 245 -3 c135 -1 282 2
327 7 131 16 216 68 268 163 24 44 30 68 33 138 4 81 2 88 -30 150 -38 74
-101 127 -182 156 -43 15 -97 18 -353 22 -249 3 -304 2 -308 -10z"/>
</g>
</svg>
